<?xml version="1.0" encoding="utf-8"?>
<!-- Generator: Adobe Illustrator 16.0.0, SVG Export Plug-In . SVG Version: 6.00 Build 0)  -->
<!DOCTYPE svg PUBLIC "-//W3C//DTD SVG 1.1//EN" "http://www.w3.org/Graphics/SVG/1.1/DTD/svg11.dtd">
<svg version="1.1" id="Layer_1" xmlns="http://www.w3.org/2000/svg" xmlns:xlink="http://www.w3.org/1999/xlink" x="0px" y="0px"
	 width="197.245px" height="244.451px" viewBox="322.338 171.419 197.245 244.451"
	 enable-background="new 322.338 171.419 197.245 244.451" xml:space="preserve">
<g>
	<path d="M384.732,328.617c-11.078,0-20.449-7.496-23.535-17.748h-38.858c3.527,31.775,30.177,56.579,62.394,56.579
		c8.323,0,16.26-1.653,23.535-4.657v53.079h38.859V310.869h-38.859C405.208,321.121,395.811,328.617,384.732,328.617z"/>
	<path d="M457.074,224.608h-9.948v-53.189h-38.859v90.945h47.678c12.099,0,22.544,8.764,24.28,20.725
		c2.177,14.965-9.784,27.753-24.831,27.753v37.756c37.812,0,67.988-31.583,63.8-68.926
		C515.666,248.226,488.74,224.608,457.074,224.608z"/>
</g>
</svg>
