<svg enable-background="new 0 0 48 48" height="48" viewBox="0 0 48 48" width="48" xmlns="http://www.w3.org/2000/svg">
<style>
    @media (prefers-color-scheme: dark) {
      .a { fill: #f0f0f0 }
    }
  </style>
<g class=".a" fill="#333">
<path d="m18.665 29.151c-1.632 0-3.007-1.104-3.464-2.614h-5.726c.522 4.679 4.444 8.333 9.189 8.333 1.225 0 2.394-.244 3.465-.689v7.819h5.722v-15.463h-5.722c-.45 1.51-1.831 2.614-3.464 2.614z"/><path d="m29.318 13.833h-1.467v-7.833h-5.723v13.394h7.021c1.784 0 3.323 1.292 3.578 3.05.324 2.207-1.44 4.09-3.658 4.09v5.559c5.568 0 10.014-4.651 9.396-10.15-.521-4.632-4.485-8.11-9.147-8.11z"/></g></svg>