<?xml version="1.0" encoding="utf-8"?>
<!-- Generator: Adobe Illustrator 16.0.0, SVG Export Plug-In . SVG Version: 6.00 Build 0)  -->
<!DOCTYPE svg PUBLIC "-//W3C//DTD SVG 1.1//EN" "http://www.w3.org/Graphics/SVG/1.1/DTD/svg11.dtd">
<svg version="1.1" id="Layer_1" xmlns="http://www.w3.org/2000/svg" xmlns:xlink="http://www.w3.org/1999/xlink" x="0px" y="0px"
	 width="197.246px" height="244.451px" viewBox="0 0 197.246 244.451" enable-background="new 0 0 197.246 244.451"
	 xml:space="preserve">
<g>
	<path fill="#333333" d="M62.394,157.197c-11.078,0-20.449-7.496-23.535-17.748H0.001c3.527,31.775,30.177,56.58,62.394,56.58
		c8.323,0,16.26-1.652,23.535-4.658v53.08h38.859V139.449H85.93C82.869,149.701,73.473,157.197,62.394,157.197z"/>
	<path fill="#333333" d="M134.736,53.189h-9.947V0h-38.86v90.945h47.678c12.1,0,22.543,8.764,24.279,20.725
		c2.178,14.965-9.783,27.754-24.83,27.754v37.756c37.811,0,67.988-31.584,63.799-68.927
		C193.328,76.807,166.402,53.189,134.736,53.189z"/>
</g>
</svg>
